# xmcd
#
# Track frame offsets:
#	150
#	34737
#	52263
#	75001
#	94013
#	121730
#	143262
#	170327
#	193225
#	218214
#	244781
#	262821
#
# Disc length: 3703 seconds
#
# Revision: 0
# Processed by: cddbd v1.5.2PL0 Copyright (c) Steve Scherf et al.
# Submitted via: audiograbber 1.83.01
#
DISCID=950e750c
DTITLE=Elizabeth Lee - Longhornes and Chinamen - Longhornes and Chinamen
DYEAR=2005
DGENRE=Country
TTITLE0=Runnin
TTITLE1=Ain't
TTITLE2=Monkey
TTITLE3=Butterfly
TTITLE4=Today
TTITLE5=Promises
TTITLE6=Maria
TTITLE7=Tightrope
TTITLE8=Mercedes
TTITLE9=City
TTITLE10=Angel
TTITLE11=Bonus Track
EXTD=
EXTT0=
EXTT1=
EXTT2=
EXTT3=
EXTT4=
EXTT5=
EXTT6=
EXTT7=
EXTT8=
EXTT9=
EXTT10=
EXTT11=
PLAYORDER=
